# xmcd
# Copyright (C) 1995-1998 Ti Kan
#
# Track frame offsets:
#       150
#       7277
#       18610
#       30657
#       40922
#       51685
#       63710
#       76929
#       87735
#       100205
#       109757
#       120957
#
# Disc length: 1746 seconds
#
# Revision: 0
# Processed by: cddbd v1.5.2PL0 Copyright (c) Steve Scherf et al.
# Submitted via: CD-Import v1.0
#
DISCID=a406d00c
DTITLE=Rolling Stones - December's Children (And Everybody's)
DYEAR=1965
DGENRE=
TTITLE0=She Said Yeah
TTITLE1=Talkin' About You
TTITLE2=You Better Move On
TTITLE3=Look What You've Done
TTITLE4=The Singer Not The Song
TTITLE5=Route 66
TTITLE6=Get Off Of My Cloud
TTITLE7=I'm Free
TTITLE8=As Tears Go By
TTITLE9=Gotta Get Away
TTITLE10=Blue Turns To Grey
TTITLE11=I'm Moving On
EXTD=
EXTT0=
EXTT1=
EXTT2=
EXTT3=
EXTT4=
EXTT5=
EXTT6=
EXTT7=
EXTT8=
EXTT9=
EXTT10=
EXTT11=
PLAYORDER=
